<svg width="64" height="64" viewBox="0 0 64 64" fill="none" xmlns="http://www.w3.org/2000/svg">
<path d="M15.2 25.5622V40.0382C15.2 41.9622 13.688 43.5002 11.762 43.5002C9.85 43.5002 8 41.9502 8 40.0382V25.5622C8 23.6742 9.85 22.1242 11.762 22.1242C13.65 22.1242 15.2 23.6742 15.2 25.5622ZM16.55 45.1882C16.55 47.2382 18.2 48.8882 20.25 48.8882H22.738L22.776 56.5262C22.776 61.1382 29.676 61.1022 29.676 56.5262V48.8882H34.326V56.5262C34.326 61.1142 41.264 61.1262 41.264 56.5262V48.8882H43.788C44.2722 48.8867 44.7514 48.7897 45.1981 48.6029C45.6449 48.416 46.0504 48.143 46.3916 47.7994C46.7328 47.4558 47.0029 47.0484 47.1866 46.6003C47.3703 46.1523 47.4638 45.6724 47.462 45.1882V22.7642H16.55V45.1882ZM47.55 21.5502H16.412C16.412 16.2002 19.612 11.5502 24.362 9.12622L21.974 4.71422C21.624 4.10222 22.512 3.71422 22.812 4.23822L25.236 8.68822C29.598 6.75022 34.612 6.85022 38.774 8.68822L41.186 4.25022C41.498 3.71222 42.374 4.11222 42.024 4.72622L39.636 9.12622C44.348 11.5502 47.548 16.2022 47.548 21.5502H47.55ZM26.212 14.6122C26.212 14.2643 26.0738 13.9305 25.8277 13.6845C25.5817 13.4384 25.248 13.3002 24.9 13.3002C24.188 13.3002 23.626 13.9002 23.626 14.6122C23.626 15.3242 24.202 15.9242 24.9 15.9242C25.638 15.9242 26.212 15.3242 26.212 14.6122ZM40.388 14.6122C40.3897 14.2699 40.2569 13.9407 40.0183 13.6953C39.7796 13.45 39.4542 13.3081 39.112 13.3002C38.764 13.3002 38.4303 13.4384 38.1843 13.6845C37.9382 13.9305 37.8 14.2643 37.8 14.6122C37.8 14.9602 37.9382 15.2939 38.1843 15.5399C38.4303 15.786 38.764 15.9242 39.112 15.9242C39.812 15.9242 40.388 15.3242 40.388 14.6122ZM52.238 22.1262C50.35 22.1262 48.8 23.6382 48.8 25.5642V40.0402C48.8 41.9642 50.35 43.5022 52.238 43.5022C54.164 43.5022 56 41.9522 56 40.0402V25.5642C56 23.6402 54.15 22.1262 52.238 22.1262Z" fill="white"/>
</svg>
