<svg width="64" height="64" viewBox="0 0 64 64" fill="none" xmlns="http://www.w3.org/2000/svg">
<g clip-path="url(#clip0_1585_189)">
<path d="M53.334 0H10.668C7.84191 0.00896577 5.13418 1.13558 3.13586 3.1339C1.13753 5.13223 0.0109189 7.83996 0.00195312 10.666V53.332C0.00195312 59.196 4.80395 63.998 10.668 63.998H53.334C59.1979 63.998 64 59.196 64 53.332V10.666C64 4.802 59.1979 0 53.334 0ZM47.5 44.948C46.9672 46.2327 46.1224 47.3642 45.042 48.24C43.916 49.146 42.5 49.896 40.75 50.428C39.01 50.97 36.938 51.24 34.532 51.24H17.386V13.906H35.5219C38.8759 13.906 41.564 14.656 43.574 16.198C45.606 17.74 46.6059 20.052 46.6059 23.156C46.6059 25.042 46.1479 26.646 45.2299 27.978C44.312 29.31 42.99 30.342 41.282 31.062V31.188C43.564 31.668 45.324 32.75 46.4799 34.428C47.636 36.106 48.24 38.23 48.24 40.792C48.2415 42.1887 47.969 43.5722 47.438 44.864L47.5 44.936V44.948ZM40.094 35.75C39.01 34.75 37.468 34.26 35.49 34.26H23.958V45.906H35.52C37.488 45.906 39.04 45.396 40.1339 44.364C41.228 43.332 41.7799 41.864 41.7799 39.988C41.7599 38.144 41.228 36.718 40.1339 35.748H40.082L40.094 35.75ZM38.5 28.218C39.552 27.322 40.0719 26.04 40.0719 24.364C40.0719 22.488 39.604 21.156 38.6559 20.396C37.7179 19.636 36.364 19.24 34.584 19.24H23.9179V29.542H34.584C36.136 29.542 37.47 29.084 38.49 28.22L38.5 28.218Z" fill="white"/>
</g>
<defs>
<clipPath id="clip0_1585_189">
<rect width="64" height="64" fill="white"/>
</clipPath>
</defs>
</svg>
