<svg width="64" height="64" viewBox="0 0 64 64" fill="none" xmlns="http://www.w3.org/2000/svg">
<g clip-path="url(#clip0_1585_179)">
<path d="M44.7277 0.0320281C44.5917 -0.119972 39.6917 0.0920281 35.4277 4.72003C31.1637 9.34403 31.8197 14.648 31.9157 14.784C32.0117 14.92 37.9957 15.132 41.8157 9.75203C45.6357 4.37203 44.8637 0.188028 44.7277 0.0320281V0.0320281ZM57.9837 46.964C57.7917 46.58 48.6837 42.028 49.5317 33.276C50.3797 24.52 56.2317 22.12 56.3237 21.86C56.4157 21.6 53.9357 18.7 51.3077 17.232C49.3782 16.197 47.2426 15.6041 45.0557 15.496C44.6237 15.484 43.1237 15.116 40.0397 15.96C38.0077 16.516 33.4277 18.316 32.1677 18.388C30.9037 18.46 27.1437 16.3 23.0997 15.728C20.5117 15.228 17.7677 16.252 15.8037 17.04C13.8437 17.824 10.1157 20.056 7.5077 25.988C4.8997 31.916 6.2637 41.308 7.2397 44.228C8.2157 47.144 9.7397 51.924 12.3317 55.412C14.6357 59.348 17.6917 62.08 18.9677 63.008C20.2437 63.936 23.8437 64.552 26.3397 63.276C28.3477 62.044 31.9717 61.336 33.4037 61.388C34.8317 61.44 37.6477 62.004 40.5317 63.544C42.8157 64.332 44.9757 64.004 47.1397 63.124C49.3037 62.24 52.4357 58.888 56.0917 52.092C57.4797 48.932 58.1117 47.224 57.9837 46.964V46.964Z" fill="white"/>
<path d="M44.7277 0.0320281C44.5917 -0.119972 39.6917 0.0920281 35.4277 4.72003C31.1637 9.34403 31.8197 14.648 31.9157 14.784C32.0117 14.92 37.9957 15.132 41.8157 9.75203C45.6357 4.37203 44.8637 0.188028 44.7277 0.0320281V0.0320281ZM57.9837 46.964C57.7917 46.58 48.6837 42.028 49.5317 33.276C50.3797 24.52 56.2317 22.12 56.3237 21.86C56.4157 21.6 53.9357 18.7 51.3077 17.232C49.3782 16.197 47.2426 15.6041 45.0557 15.496C44.6237 15.484 43.1237 15.116 40.0397 15.96C38.0077 16.516 33.4277 18.316 32.1677 18.388C30.9037 18.46 27.1437 16.3 23.0997 15.728C20.5117 15.228 17.7677 16.252 15.8037 17.04C13.8437 17.824 10.1157 20.056 7.5077 25.988C4.8997 31.916 6.2637 41.308 7.2397 44.228C8.2157 47.144 9.7397 51.924 12.3317 55.412C14.6357 59.348 17.6917 62.08 18.9677 63.008C20.2437 63.936 23.8437 64.552 26.3397 63.276C28.3477 62.044 31.9717 61.336 33.4037 61.388C34.8317 61.44 37.6477 62.004 40.5317 63.544C42.8157 64.332 44.9757 64.004 47.1397 63.124C49.3037 62.24 52.4357 58.888 56.0917 52.092C57.4797 48.932 58.1117 47.224 57.9837 46.964V46.964Z" fill="white"/>
</g>
<defs>
<clipPath id="clip0_1585_179">
<rect width="64" height="64" fill="white"/>
</clipPath>
</defs>
</svg>
