<svg width="64" height="64" viewBox="0 0 64 64" fill="none" xmlns="http://www.w3.org/2000/svg">
<path d="M24.9867 46.6933C16.7467 48.9866 29.9733 53.7333 40.4533 49.3599C39.4363 48.9644 38.455 48.4826 37.52 47.9199C33.8815 48.7483 30.1231 48.9109 26.4267 48.3999C22.9333 47.9999 24.9867 46.6933 24.9867 46.6933ZM39.2 42.2133C34.5068 43.2339 29.6766 43.4682 24.9067 42.9066C21.4133 42.5333 23.7067 40.8533 23.7067 40.8533C14.64 43.8399 28.7467 47.2533 41.4133 43.5199C40.5898 43.2494 39.8347 42.8036 39.2 42.2133ZM44.0533 16.2666C44.0533 16.2666 25.7333 20.8266 34.48 30.9066C34.8213 31.3157 35.0755 31.7901 35.2273 32.3007C35.3791 32.8114 35.4252 33.3476 35.3628 33.8767C35.3004 34.4058 35.1309 34.9166 34.8645 35.3779C34.598 35.8392 34.2404 36.2414 33.8133 36.5599C33.8133 36.5599 40.3733 33.1733 37.36 28.9333C34.3467 24.6933 32.4 23.0133 44.0533 16.2666Z" fill="white"/>
<path d="M48.3466 51.0402C48.3466 51.0402 49.84 52.2668 46.6666 53.2268C40.6133 55.0668 21.52 55.6268 16.2133 53.2268C14.2933 52.4002 17.8666 51.2535 18.88 51.0135C19.4806 50.8585 20.0998 50.7867 20.72 50.8002C18.5866 49.3068 6.98664 53.7335 14.8266 55.0135C36.2933 58.6668 53.8666 53.5202 48.3466 51.0402ZM40.9866 38.0268C41.7708 37.5309 42.5909 37.0941 43.44 36.7202C43.44 36.7202 39.4133 37.4402 35.44 37.7868C31.1673 38.1992 26.867 38.2438 22.5866 37.9202C16.24 37.0935 25.9733 34.6668 25.9733 34.6668C23.0442 34.6441 20.1531 35.3303 17.5466 36.6668C12.0533 39.4135 31.12 40.6135 40.9866 38.0268ZM43.4133 44.5335C43.3551 44.6241 43.2831 44.705 43.2 44.7735C56.5333 41.2535 51.68 32.3735 45.28 34.6135C44.9269 34.7434 44.6206 34.9755 44.4 35.2802C44.4 35.2802 44.7733 35.1468 45.5466 34.9602C48.8 34.2935 53.3333 39.3068 43.4133 44.5335ZM32 34.6668C30.0266 30.2135 23.3066 26.2935 32 19.4402C42.9066 10.8802 37.3333 5.3335 37.3333 5.3335C39.5733 14.1602 29.3333 16.8268 25.76 22.3202C23.28 26.0802 27.0133 30.1068 32 34.6668Z" fill="white"/>
<path d="M43.7601 56.8531C35.7034 58.2324 27.4819 58.3584 19.3867 57.2264C19.3867 57.2264 20.6134 58.2398 26.9601 58.6398C36.5867 59.2531 51.3601 58.3198 51.7334 53.7598C51.7334 53.7598 51.0401 55.4664 43.7601 56.8531Z" fill="white"/>
</svg>
