<svg width="80" height="64" viewBox="0 0 80 64" fill="none" xmlns="http://www.w3.org/2000/svg">
<path d="M39.5375 56.5001C39.275 56.5001 39.0125 56.4251 38.775 56.3001L36.375 54.8751C36.0125 54.6751 36.1875 54.6001 36.3125 54.5626C36.7875 54.4001 36.8875 54.3626 37.4 54.0626C37.45 54.0376 37.525 54.0501 37.575 54.0751L39.425 55.1751C39.4875 55.2126 39.5875 55.2126 39.65 55.1751L46.875 51.0001C46.9375 50.9626 46.9875 50.8876 46.9875 50.8001V42.4626C46.9875 42.3751 46.95 42.3001 46.875 42.2626L39.65 38.1001C39.5875 38.0626 39.5 38.0626 39.425 38.1001L32.2 42.2626C32.125 42.3001 32.0875 42.3876 32.0875 42.4626V50.8001C32.0875 50.8751 32.1375 50.9501 32.2 50.9876L34.175 52.1251C35.25 52.6626 35.9125 52.0251 35.9125 51.4001V43.1626C35.9125 43.0501 36 42.9501 36.125 42.9501H37.0375C37.15 42.9501 37.25 43.0376 37.25 43.1626V51.4001C37.25 52.8376 36.475 53.6501 35.1125 53.6501C34.7 53.6501 34.3625 53.6501 33.45 53.2001L31.55 52.1126C31.0875 51.8376 30.7875 51.3376 30.7875 50.8001V42.4626C30.7875 41.9251 31.075 41.4126 31.55 41.1501L38.775 36.9751C39.2375 36.7126 39.8375 36.7126 40.2875 36.9751L47.5125 41.1501C47.975 41.4251 48.275 41.9251 48.275 42.4626V50.8001C48.275 51.3376 47.9875 51.8501 47.5125 52.1126L40.2875 56.2876C40.075 56.4251 39.8125 56.5001 39.5375 56.5001ZM45.375 48.2751C45.375 46.7126 44.325 46.3001 42.1 46.0001C39.85 45.7001 39.625 45.5501 39.625 45.0251C39.625 44.5876 39.8125 44.0126 41.475 44.0126C42.9625 44.0126 43.5125 44.3376 43.7375 45.3376C43.7625 45.4376 43.8375 45.5001 43.9375 45.5001H44.875C44.9375 45.5001 44.9875 45.4751 45.025 45.4376C45.0625 45.3876 45.0875 45.3376 45.075 45.2751C44.925 43.5501 43.7875 42.7501 41.475 42.7501C39.4125 42.7501 38.1875 43.6251 38.1875 45.0751C38.1875 46.6626 39.4125 47.0876 41.3875 47.2876C43.75 47.5251 43.9375 47.8626 43.9375 48.3251C43.9375 49.1376 43.2875 49.4751 41.7625 49.4751C39.85 49.4751 39.425 49.0001 39.2875 48.0501C39.275 47.9501 39.1875 47.8751 39.075 47.8751H38.1375C38.025 47.8751 37.925 47.9626 37.925 48.0876C37.925 49.3001 38.5875 50.7501 41.75 50.7501C44.0625 50.7501 45.375 49.8501 45.375 48.2751ZM52.1875 42.0126C52.1875 42.7751 51.5625 43.4001 50.8 43.4001C50.0375 43.4001 49.4125 42.7751 49.4125 42.0126C49.4125 41.2251 50.0625 40.6251 50.8 40.6251C51.55 40.6126 52.1875 41.2251 52.1875 42.0126ZM51.9625 42.0126C51.9625 41.3626 51.4375 40.8501 50.7875 40.8501C50.15 40.8501 49.625 41.3626 49.625 42.0126C49.625 42.6626 50.15 43.1876 50.7875 43.1876C51.4375 43.1751 51.9625 42.6501 51.9625 42.0126ZM51.4 42.7876H51.075C51.0625 42.7126 51.0125 42.3126 51.0125 42.3001C50.9875 42.2126 50.9625 42.1626 50.85 42.1626H50.575V42.7876H50.275V41.2251H50.8125C51 41.2251 51.3625 41.2251 51.3625 41.6376C51.3625 41.9251 51.175 41.9876 51.0625 42.0251C51.275 42.0376 51.2875 42.1751 51.325 42.3751C51.3375 42.5001 51.3625 42.7126 51.4 42.7876ZM51.05 41.6876C51.05 41.4751 50.9 41.4751 50.825 41.4751H50.575V41.9126H50.8125C51.0125 41.9126 51.05 41.7751 51.05 41.6876ZM17.1625 23.8751C17.1625 23.5376 16.9875 23.2376 16.7 23.0751L9.0375 18.6626C8.9125 18.5876 8.7625 18.5501 8.6125 18.5376H8.5375C8.3875 18.5376 8.25 18.5876 8.1125 18.6626L0.4625 23.0751C0.175 23.2376 0 23.5501 0 23.8751L0.0125 35.7501C0.0125 35.9126 0.1 36.0626 0.2375 36.1501C0.375 36.2376 0.55 36.2376 0.7 36.1501L5.25 33.5376C5.5375 33.3626 5.7125 33.0626 5.7125 32.7376V27.1876C5.7125 26.8626 5.8875 26.5501 6.175 26.3876L8.1125 25.2751C8.2625 25.1876 8.4125 25.1501 8.575 25.1501C8.7375 25.1501 8.9 25.1876 9.0375 25.2751L10.975 26.3876C11.2625 26.5501 11.4375 26.8626 11.4375 27.1876V32.7376C11.4375 33.0626 11.6125 33.3751 11.9 33.5376L16.45 36.1501C16.5875 36.2376 16.775 36.2376 16.9125 36.1501C17.05 36.0751 17.1375 35.9126 17.1375 35.7501L17.1625 23.8751ZM59.0625 10.9126V32.9626C59.0625 33.2876 58.8875 33.6001 58.6 33.7626L50.9375 38.1876C50.65 38.3501 50.3 38.3501 50.0125 38.1876L42.35 33.7626C42.0625 33.6001 41.8875 33.2876 41.8875 32.9626V24.1126C41.8875 23.7876 42.0625 23.4751 42.35 23.3126L50.0125 18.8876C50.3 18.7251 50.65 18.7251 50.9375 18.8876L52.85 19.9876C53.0625 20.1126 53.3375 19.9501 53.3375 19.7126V7.96264C53.3375 7.61264 53.7125 7.38764 54.025 7.56264L58.5875 10.1126C58.875 10.2626 59.0625 10.5751 59.0625 10.9126ZM53.3125 27.0251C53.3125 26.9376 53.2625 26.8626 53.2 26.8251L50.575 25.3001C50.5 25.2626 50.4125 25.2626 50.3375 25.3001L47.7125 26.8251C47.6375 26.8626 47.6 26.9376 47.6 27.0251V30.0626C47.6 30.1501 47.65 30.2251 47.7125 30.2626L50.3375 31.7751C50.4125 31.8126 50.5 31.8126 50.5625 31.7751L53.1875 30.2626C53.2625 30.2251 53.3 30.1501 53.3 30.0626V27.0251H53.3125ZM79.5375 26.9376C79.825 26.7751 80 26.4626 80 26.1376V24.0001C80 23.6751 79.825 23.3626 79.5375 23.2001L71.925 18.7751C71.6375 18.6126 71.2875 18.6126 71 18.7751L63.3375 23.2001C63.05 23.3626 62.875 23.6751 62.875 24.0001V32.8501C62.875 33.1876 63.05 33.4876 63.3375 33.6501L70.95 37.9876C71.225 38.1501 71.575 38.1501 71.8625 37.9876L76.4625 35.4251C76.775 35.2501 76.775 34.8001 76.4625 34.6251L68.75 30.2001C68.6 30.1126 68.5125 29.9626 68.5125 29.8001V27.0251C68.5125 26.8626 68.6 26.7126 68.75 26.6251L71.15 25.2376C71.2875 25.1501 71.475 25.1501 71.6125 25.2376L74.0125 26.6251C74.15 26.7126 74.25 26.8626 74.25 27.0251V29.2001C74.25 29.5501 74.6375 29.7751 74.95 29.6001L79.5375 26.9376ZM69.875 27.3751C69.825 27.4126 69.7875 27.4626 69.7875 27.5251V29.2251C69.7875 29.2876 69.825 29.3501 69.875 29.3751L71.35 30.2251C71.4 30.2626 71.475 30.2626 71.525 30.2251L73 29.3751C73.05 29.3376 73.0875 29.2876 73.0875 29.2251V27.5251C73.0875 27.4626 73.05 27.4001 73 27.3751L71.525 26.5251C71.475 26.4876 71.4 26.4876 71.35 26.5251L69.875 27.3751ZM38.1 32.8126V24.0126C38.1 23.6876 37.9 23.3751 37.6125 23.2126L29.975 18.8126C29.7125 18.6626 29.35 18.6376 29.05 18.8126L21.4125 23.2126C21.125 23.3751 20.925 23.6751 20.925 24.0126V32.8126C20.925 33.1626 21.1625 33.4626 21.425 33.6126L29.075 38.0126C29.375 38.1876 29.725 38.1751 30 38.0126L37.625 33.6126C37.85 33.4876 38.0125 33.2751 38.075 33.0251C38.0875 32.9626 38.1 32.8876 38.1 32.8126ZM28.8125 17.2001L28.7125 17.2626H28.85L28.8125 17.2001ZM38.3375 33.4751L38.2875 33.3876V33.5001L38.3375 33.4751Z" fill="white"/>
</svg>
