<svg width="64" height="32" viewBox="0 0 64 32" fill="none" xmlns="http://www.w3.org/2000/svg">
<g clip-path="url(#clip0_1585_207)">
<path d="M14.556 6.71206C17.3419 6.73526 19.3605 7.53216 20.6121 9.10164C21.8638 10.671 22.2766 12.8148 21.8516 15.5325C21.6866 16.7745 21.3204 17.9924 20.7537 19.1872C20.2105 20.382 19.4554 21.4595 18.4871 22.4202C17.3064 23.6382 16.0434 24.4114 14.6976 24.7396C13.3519 25.0678 11.9586 25.2316 10.5185 25.2316H6.26875L4.923 31.9085H0L5.0645 6.71206H14.556ZM56.5426 6.71206C59.3285 6.73526 61.3472 7.53216 62.5989 9.10164C63.8504 10.671 64.2634 12.8148 63.8384 15.5325C63.6734 16.7745 63.3071 17.9924 62.7405 19.1872C62.1971 20.382 61.4421 21.4595 60.4739 22.4202C59.2931 23.6382 58.0301 24.4114 56.6844 24.7396C55.3385 25.0678 53.9452 25.2316 52.5052 25.2316H48.2552L46.9095 31.9085H41.9866L47.0513 6.71206H56.5428H56.5426ZM32.3469 0L30.9656 6.71206H35.3573C37.7655 6.75919 39.5597 7.2511 40.7404 8.18803C41.9446 9.12484 42.2988 10.9058 41.8029 13.5294L39.43 25.2316H34.4717L36.7384 14.0566C36.9743 12.885 36.9034 12.0535 36.5259 11.5616C36.1484 11.0695 35.3339 10.8236 34.0821 10.8236L30.151 10.7885L27.2469 25.2316H22.3595L27.4595 0H32.3469ZM10.731 10.7181C10.4601 10.7409 10.1884 10.7526 9.9165 10.7532H9.201L7.08325 21.2605C7.22487 21.2838 7.3665 21.2958 7.50825 21.2958H8.004C10.2706 21.3189 12.1597 21.0968 13.6706 20.6281C15.1815 20.1361 16.1971 18.426 16.7164 15.4974C17.1414 13.0375 16.7164 11.6198 15.4414 11.2453C14.1897 10.8707 12.6201 10.6949 10.731 10.7181ZM52.7178 10.7181C52.4468 10.7409 52.175 10.7526 51.9031 10.7532H51.1876L49.0699 21.2605C49.2115 21.2838 49.3533 21.2958 49.4949 21.2958H49.9907C52.2574 21.3189 54.1464 21.0968 55.6572 20.6281C57.1681 20.1361 58.1839 18.426 58.703 15.4974C59.128 13.0375 58.703 11.6198 57.428 11.2453C56.1765 10.8707 54.6068 10.6949 52.7178 10.7181Z" fill="white"/>
</g>
<defs>
<clipPath id="clip0_1585_207">
<rect width="64" height="32" fill="white"/>
</clipPath>
</defs>
</svg>
