<svg width="64" height="64" viewBox="0 0 64 64" fill="none" xmlns="http://www.w3.org/2000/svg">
<path d="M31.7289 0.0180664C15.5209 0.0180664 16.5329 7.07438 16.5329 7.07438L16.5509 14.3849H32.0179V16.5798H10.4076C10.4076 16.5798 0.0361328 15.3989 0.0361328 31.8168C0.0361328 48.2352 9.08863 47.6529 9.08863 47.6529H14.4911V40.0341C14.4911 40.0341 14.1999 30.9461 23.3991 30.9461H38.7396C38.7396 30.9461 47.3584 31.0859 47.3584 22.5837V8.5258C47.3584 8.5258 48.6674 0.0180664 31.7289 0.0180664ZM23.2004 4.93427C23.5659 4.93394 23.9279 5.00597 24.2656 5.14623C24.6033 5.2865 24.9102 5.49225 25.1686 5.7517C25.4271 6.01116 25.632 6.31924 25.7717 6.6583C25.9115 6.99736 25.9832 7.36075 25.9829 7.72768C25.9832 8.09461 25.9115 8.458 25.7717 8.79706C25.632 9.13613 25.4271 9.4442 25.1686 9.70366C24.9102 9.96312 24.6033 10.1689 24.2656 10.3091C23.9279 10.4494 23.5659 10.5214 23.2004 10.5211C22.8349 10.5214 22.4729 10.4494 22.1352 10.3091C21.7974 10.1689 21.4906 9.96312 21.2321 9.70366C20.9737 9.4442 20.7687 9.13613 20.629 8.79706C20.4893 8.458 20.4176 8.09461 20.4179 7.72768C20.4176 7.36075 20.4893 6.99736 20.629 6.6583C20.7687 6.31924 20.9737 6.01116 21.2321 5.7517C21.4906 5.49225 21.7974 5.2865 22.1352 5.14623C22.4729 5.00597 22.8349 4.93394 23.2004 4.93427Z" fill="white"/>
<path d="M32.1893 63.7804C48.3973 63.7804 47.3853 56.7241 47.3853 56.7241L47.3673 49.4138H31.9001V47.219H53.5103C53.5103 47.219 63.8818 48.3999 63.8818 31.9815C63.8818 15.5633 54.8293 16.1456 54.8293 16.1456H49.4268V23.7641C49.4268 23.7641 49.7181 32.8521 40.5188 32.8521H25.1783C25.1783 32.8521 16.5596 32.7123 16.5596 41.2148V55.273C16.5596 55.273 15.2508 63.7804 32.1891 63.7804H32.1893ZM40.7178 58.8647C40.3523 58.8651 39.9904 58.793 39.6526 58.6528C39.3149 58.5125 39.008 58.3068 38.7496 58.0473C38.4911 57.7878 38.2862 57.4798 38.1465 57.1407C38.0068 56.8016 37.935 56.4383 37.9353 56.0713C37.935 55.7044 38.0067 55.341 38.1464 55.0019C38.2861 54.6628 38.491 54.3547 38.7495 54.0952C39.0079 53.8357 39.3148 53.6299 39.6526 53.4896C39.9903 53.3494 40.3523 53.2773 40.7178 53.2777C41.0833 53.2773 41.4453 53.3494 41.783 53.4896C42.1208 53.6299 42.4276 53.8356 42.6861 54.0951C42.9445 54.3545 43.1495 54.6626 43.2892 55.0017C43.4289 55.3407 43.5007 55.7041 43.5003 56.0711C43.5007 56.438 43.4289 56.8014 43.2892 57.1404C43.1495 57.4795 42.9445 57.7876 42.6861 58.047C42.4276 58.3065 42.1208 58.5123 41.783 58.6525C41.4453 58.7928 41.0833 58.8648 40.7178 58.8645V58.8647Z" fill="white"/>
</svg>
