<svg width="64" height="64" viewBox="0 0 64 64" fill="none" xmlns="http://www.w3.org/2000/svg">
<path d="M55.4739 13.0125C55.4521 12.8781 55.3774 12.7547 55.2626 12.6634C55.1479 12.5721 55.0003 12.5187 54.8453 12.5125C54.5596 12.5125 49.5268 12.4125 49.5268 12.4125C49.5268 12.4125 46.4396 9.81 45.2953 8.80875V62.9L63.2511 59C63.2511 59 55.5311 13.3125 55.4739 13.0125ZM41.2353 8.80875C40.9611 8.05169 40.6166 7.31549 40.2053 6.6075C38.7139 4.10625 36.4882 2.75 33.8568 2.75C33.6646 2.74416 33.4724 2.76098 33.2853 2.8C33.2282 2.7 33.1139 2.65 33.0568 2.55C31.9139 1.45375 30.4282 0.953753 28.6539 1C25.2253 1.1 21.7968 3.25 19.0468 7.10375C17.1025 9.80625 15.6182 13.2088 15.2153 15.8613C11.2696 16.9113 8.52534 17.6625 8.46819 17.7125C6.46819 18.2625 6.40962 18.3125 6.18248 19.9625C6.01105 21.2125 0.753906 56.44 0.753906 56.44L43.9796 63V8.20875C43.7692 8.21568 43.5594 8.23237 43.3511 8.25875C43.3511 8.25875 42.5511 8.45875 41.2353 8.80875ZM33.3439 10.9613C31.0582 11.5613 28.5396 12.2613 26.0811 12.9125C26.7668 10.56 28.1396 8.20875 29.7411 6.6625C30.3696 6.1125 31.2282 5.46125 32.1996 5.06125C33.1725 6.8575 33.4011 9.31001 33.3439 10.9613ZM28.6539 3.055C29.3742 3.03514 30.0869 3.18909 30.7139 3.5C29.7996 3.9 28.8839 4.55125 28.0268 5.30125C25.8539 7.35375 24.1953 10.5513 23.5096 13.6075C21.4496 14.1588 19.3911 14.7088 17.5096 15.2088C18.761 10.41 23.3925 3.155 28.6539 3.055ZM22.021 30.5763C22.2496 33.7775 31.9139 34.4788 32.4853 42.0338C32.8853 47.9888 28.8825 52.0413 23.1068 52.3425C16.1311 52.7425 12.2996 49.14 12.2996 49.14L13.7853 43.64C13.7853 43.64 17.6168 46.1925 20.7053 45.9925C22.7053 45.8925 23.451 44.4413 23.3925 43.44C23.1068 39.2375 15.2153 39.4875 14.7011 32.5825C14.2439 26.7775 18.5896 20.9238 28.1968 20.3725C31.9111 20.1725 33.8011 20.9738 33.8011 20.9738L31.6282 28.1738C31.6282 28.1738 29.1696 27.1738 26.2525 27.3738C22.0211 27.625 21.9639 29.975 22.021 30.5763ZM35.6311 10.36C35.6311 8.86 35.4025 6.7075 34.6011 4.90625C37.2325 5.35625 38.4896 7.90625 39.0625 9.46C38.033 9.71 36.8891 10.01 35.6311 10.36Z" fill="white"/>
</svg>
