<svg width="80" height="64" viewBox="0 0 80 64" fill="none" xmlns="http://www.w3.org/2000/svg">
<path d="M49.1725 16.461C49.1725 18.0898 49.4325 20.5473 45.5875 21.9398C44.3975 22.371 43.5938 23.1473 43.5938 23.1473C43.5938 19.2723 44.1838 17.8698 45.7687 17.0398C46.9875 16.401 49.1725 16.461 49.1725 16.461ZM34.6975 20.9035L30.4175 37.486L26.8575 23.9148C25.8962 19.916 24.2562 17.8485 20.8037 17.8485C17.3825 17.8485 15.7212 19.871 14.75 23.9148L11.19 37.486L6.91 20.9035C6.21625 17.5635 2.9825 16.1198 0 16.4948L8.19625 47.486C8.19625 47.486 10.9 47.681 12.2537 46.991C14.0312 46.0848 14.8763 45.386 15.9525 41.1698C16.9113 37.411 19.5913 26.3685 19.8425 25.5823C20.4375 23.7148 21.2288 23.856 21.7675 25.5823C22.0138 26.3698 24.6987 37.411 25.6575 41.1698C26.7325 45.386 27.5788 46.0848 29.3563 46.991C30.7088 47.681 33.4137 47.486 33.4137 47.486L41.61 16.4948C38.5575 16.111 35.3825 17.611 34.6975 20.9035ZM49.17 21.5548C49.17 21.5548 48.6575 22.3473 47.4875 23.001C46.7362 23.421 46.015 23.706 45.2412 24.0773C43.3487 24.9848 43.5938 25.821 43.5938 28.4773V47.486C43.5938 47.486 45.6625 47.7473 47.015 47.0573C48.7562 46.1698 49.1562 45.3135 49.1725 41.4598V22.676L49.17 22.6773V21.5548ZM69.6 32.0648L80 16.5973C80 16.5973 75.6113 15.8498 73.4375 17.8285C71.775 19.341 70.3863 21.5223 66.665 26.8873C66.6063 26.9785 65.8838 28.2048 65.0312 26.8873C61.37 21.6085 59.9313 19.351 58.2588 17.8285C56.085 15.8498 51.6963 16.5973 51.6963 16.5973L62.0962 32.0648L51.725 47.4848C51.725 47.4848 56.2962 48.0623 58.4688 46.0835C59.905 44.776 60.6663 43.5373 65.0325 37.2435C65.8838 35.9285 66.6038 37.1473 66.6663 37.2435C70.3413 42.541 71.57 44.501 73.3087 46.0835C75.4825 48.0623 79.9737 47.4848 79.9737 47.4848L69.6 32.0648Z" fill="white"/>
</svg>
