<svg width="64" height="64" viewBox="0 0 64 64" fill="none" xmlns="http://www.w3.org/2000/svg">
<path d="M50.5319 30.6119C50.5319 27.2199 49.3119 24.8719 48.2679 23.0439L47.9479 22.5239C46.6799 20.4839 45.5719 18.6919 45.5719 16.6039C45.5719 14.0839 47.4839 11.7319 50.1799 11.7319C50.2599 11.7319 50.3359 11.7399 50.4119 11.7439L50.5359 11.7559C45.4806 7.11243 38.8641 4.53953 31.9999 4.54787C27.4505 4.54553 22.9721 5.67516 18.9682 7.83495C14.9642 9.99475 11.5605 13.1168 9.06387 16.9199C9.70387 16.9399 10.3159 16.9559 10.8319 16.9559C13.6999 16.9559 18.1439 16.6079 18.1439 16.6079C19.6239 16.5199 19.7999 18.6919 18.3199 18.8679C18.3199 18.8679 16.8359 19.0439 15.1799 19.1279L25.1799 48.8639L31.1799 30.8399L26.8999 19.1239C25.4239 19.0359 24.0239 18.8639 24.0239 18.8639C22.5439 18.7759 22.7199 16.5119 24.1959 16.5999C24.1959 16.5999 28.7319 16.9479 31.4279 16.9479C34.2999 16.9479 38.7479 16.5999 38.7479 16.5999C40.2279 16.5119 40.3999 18.6879 38.9199 18.8639C38.9199 18.8639 37.4319 19.0359 35.7799 19.1239L45.6999 48.6319L48.4359 39.4839L48.6519 38.7919C49.7319 35.3519 50.5279 32.8119 50.5279 30.6079L50.5319 30.6119ZM4.54787 31.9999C4.5476 37.1549 5.99859 42.2058 8.73479 46.5746C11.471 50.9435 15.3819 54.4538 20.0199 56.7039L6.91987 20.8239C5.3512 24.3407 4.54289 28.1491 4.54787 31.9999Z" fill="white"/>
<path d="M24.2441 58.3321L32.4841 34.4001L40.9201 57.5201C40.9761 57.6521 41.0401 57.7761 41.1161 57.8961C35.6779 59.812 29.7741 59.9646 24.2441 58.3321ZM56.0841 18.8281C56.2041 19.7041 56.2721 20.6401 56.2721 21.6521C56.2721 24.4361 55.7521 27.5681 54.1841 31.4841L45.8001 55.7241C51.987 52.1296 56.525 46.2605 58.4469 39.3682C60.3687 32.4758 59.5223 25.1054 56.0881 18.8281H56.0841Z" fill="white"/>
<path fill-rule="evenodd" clip-rule="evenodd" d="M0 32C0 14.356 14.356 0 32 0C49.64 0 64 14.356 64 32C64 49.644 49.64 64 32 64C14.356 64 0 49.644 0 32ZM1.468 32C1.468 48.836 15.164 62.532 32 62.532C48.832 62.532 62.528 48.836 62.528 32C62.528 15.16 48.832 1.468 32 1.468C15.16 1.468 1.468 15.16 1.468 32Z" fill="white"/>
</svg>
