<svg width="64" height="64" viewBox="0 0 64 64" fill="none" xmlns="http://www.w3.org/2000/svg">
<path d="M57 0H7C3.13401 0 0 3.13401 0 7V57C0 60.866 3.13401 64 7 64H57C60.866 64 64 60.866 64 57V7C64 3.13401 60.866 0 57 0Z" fill="white"/>
<path d="M46.5941 23.5495V40.106C46.5941 45.811 46.1766 48.547 44.9246 50.9123C43.7649 53.1853 42.2344 54.6228 39.0809 56.1998L32.4484 53.046C35.6024 51.562 37.1329 50.2635 38.1066 48.2685C39.1271 46.2283 39.4521 43.8628 39.4521 37.6483V23.5495H46.5941ZM35.2319 12.5195V45.5793C31.5681 46.2748 28.8781 46.553 25.9564 46.553C17.2371 46.553 12.6921 42.6113 12.6921 35.0513C12.6921 27.7698 17.5156 23.0395 24.9821 23.0395C26.1416 23.0395 27.0229 23.132 28.0896 23.4103V12.52H35.2321L35.2319 12.5195ZM25.6781 28.79C22.0606 28.79 19.9734 31.0163 19.9734 34.9118C19.9734 38.7153 21.9679 40.802 25.6319 40.802C26.4199 40.802 27.0694 40.7558 28.0896 40.617V29.1608C27.2549 28.8828 26.5594 28.79 25.6781 28.79ZM46.5941 12.5575V19.8855H39.4521V12.5578H46.5941V12.5575Z" fill="#004AEA"/>
</svg>
