<svg width="64" height="64" viewBox="0 0 64 64" fill="none" xmlns="http://www.w3.org/2000/svg">
<g clip-path="url(#clip0_1189_74)">
<path d="M17.5104 14.4937L28.032 35.5411L16.7467 39.3043L11.0806 16.6398L17.5104 14.4979V14.4937ZM39.5819 49.1006L34.0523 38.0371L47.5222 33.5443L52.4928 41.3523L39.5819 49.1006ZM51.9851 27.5625L49.3312 28.4457L47.1211 24.9726L49.583 24.3539L51.9851 27.5582V27.5625Z" fill="white"/>
<path fill-rule="evenodd" clip-rule="evenodd" d="M0 10.6667C0 7.83769 1.12381 5.12458 3.12419 3.12419C5.12458 1.12381 7.83769 0 10.6667 0L53.3333 0C56.1623 0 58.8754 1.12381 60.8758 3.12419C62.8762 5.12458 64 7.83769 64 10.6667V53.3333C64 56.1623 62.8762 58.8754 60.8758 60.8758C58.8754 62.8762 56.1623 64 53.3333 64H10.6667C7.83769 64 5.12458 62.8762 3.12419 60.8758C1.12381 58.8754 0 56.1623 0 53.3333L0 10.6667ZM20.4971 10.9312C20.2669 10.4728 19.8793 10.1126 19.4052 9.91671C18.9311 9.72081 18.4024 9.70229 17.9157 9.86453L7.8592 13.2139C7.34892 13.3838 6.92165 13.7402 6.66295 14.2117C6.40424 14.6833 6.33318 15.2351 6.464 15.7568L13.1669 42.5728C13.2377 42.8587 13.367 43.1269 13.5465 43.3604C13.726 43.5939 13.952 43.7877 14.2101 43.9296C14.4682 44.0715 14.7529 44.1584 15.0463 44.1848C15.3397 44.2113 15.6353 44.1767 15.9147 44.0832L29.9605 39.3984L36.7957 53.0688C36.9272 53.332 37.1117 53.5651 37.3376 53.7536C37.5635 53.942 37.826 54.0817 38.1085 54.1638C38.391 54.246 38.6874 54.2688 38.9792 54.2309C39.2709 54.193 39.5516 54.0951 39.8037 53.9435L56.5632 43.8869C56.8075 43.7405 57.02 43.5466 57.1882 43.3168C57.3564 43.0869 57.4769 42.8257 57.5425 42.5485C57.6081 42.2713 57.6176 41.9838 57.5703 41.7029C57.523 41.4221 57.4199 41.1535 57.2672 40.9131L51.6949 32.1536L56.1408 30.6731C56.462 30.5664 56.7532 30.3848 56.9903 30.1433C57.2275 29.9019 57.4037 29.6074 57.5046 29.2844C57.6055 28.9613 57.6281 28.6189 57.5705 28.2854C57.5129 27.9519 57.3767 27.6369 57.1733 27.3664L52.1472 20.6635C51.895 20.3271 51.5491 20.0727 51.1529 19.9323C50.7566 19.7918 50.3277 19.7716 49.92 19.8741L43.2171 21.5509C42.8897 21.6333 42.5865 21.7923 42.3325 22.0147C42.0785 22.237 41.8809 22.5165 41.7559 22.8302C41.6309 23.1438 41.5822 23.4826 41.6137 23.8188C41.6452 24.1549 41.756 24.4788 41.9371 24.7637L45.1584 29.8325L32.128 34.1803L20.4971 10.9312Z" fill="white"/>
</g>
<defs>
<clipPath id="clip0_1189_74">
<rect width="64" height="64" fill="white"/>
</clipPath>
</defs>
</svg>
