<svg width="84" height="64" viewBox="0 0 84 64" fill="none" xmlns="http://www.w3.org/2000/svg">
<path d="M3.81818 51.2C4.83083 51.2 5.802 51.8743 6.51804 53.0745C7.23409 54.2747 7.63636 55.9026 7.63636 57.6C7.63636 59.2974 7.23409 60.9253 6.51804 62.1255C5.802 63.3257 4.83083 64 3.81818 64C2.80554 64 1.83437 63.3257 1.11832 62.1255C0.402271 60.9253 0 59.2974 0 57.6C0 55.9026 0.402271 54.2747 1.11832 53.0745C1.83437 51.8743 2.80554 51.2 3.81818 51.2ZM76.3636 64H68.7273V12.8H61.0909V0H84V12.8H76.3636V64ZM57.2727 0V12.8H49.6364V25.6H57.2727V38.4H49.6364V51.2H57.2727V64H42V0H57.2727ZM38.1818 0V64H30.5455L19.0909 25.6V64H11.4545V0H19.0909L30.5455 38.4V0H38.1818Z" fill="white"/>
</svg>
