<svg width="64" height="64" viewBox="0 0 64 64" fill="none" xmlns="http://www.w3.org/2000/svg">
<path d="M49.3668 42.1053L12.9868 63.7925L60.0923 60.5832L63.7201 12.8984L49.3666 42.105L49.3668 42.1053Z" fill="white"/>
<path d="M60.1693 60.5509L56.1205 32.4971L45.0923 47.1167L60.1693 60.5512V60.5509Z" fill="white"/>
<path d="M60.224 60.5508L30.5625 58.2134L13.144 63.7314L60.224 60.5508Z" fill="white"/>
<path d="M13.186 63.7379L20.596 39.3677L4.29004 42.8676L13.1858 63.7376L13.186 63.7379Z" fill="white"/>
<path d="M45.0895 47.197L38.2713 20.3862L18.7595 38.748L45.0895 47.1975V47.197Z" fill="#004AEA"/>
<path d="M62.1733 20.7637L43.729 5.64062L38.593 22.3102L62.1733 20.7637Z" fill="white"/>
<path d="M53.5477 0.248533L42.7 6.26704L35.856 0.167969L53.5477 0.248784V0.248533Z" fill="white"/>
<path d="M0 51.0425L4.54425 42.7223L0.86825 32.8101L0 51.0425Z" fill="white"/>
<path d="M0.624023 32.4969L4.32252 43.0288L20.3933 39.4092L38.7408 22.2906L43.9188 5.77933L35.7658 0L21.9045 5.20784C17.5373 9.28577 9.06302 17.3543 8.75752 17.5059C8.45502 17.661 3.16152 27.7055 0.624023 32.4969Z" fill="white"/>
<path d="M13.6104 13.5766C23.0754 4.15528 35.2772 -1.41096 39.9597 3.33207C44.6397 8.0751 39.6767 19.6014 30.2117 29.0197C20.7467 38.4377 8.69617 44.3106 4.01667 39.5676C-0.665828 34.8278 4.14542 22.9949 13.6104 13.5766Z" fill="#004AEA"/>
<path d="M13.186 63.728L20.538 39.2803L44.9543 47.155C36.1263 55.4657 26.3075 62.4914 13.186 63.728Z" fill="white"/>
<path d="M38.7729 22.2422L45.0412 47.1679C52.4157 39.3834 59.0342 31.0148 62.2757 20.6636L38.7729 22.2422Z" fill="white"/>
<path d="M62.2117 20.7897C64.7204 13.1895 65.2992 2.28613 53.4702 0.261719L43.7639 5.64399L62.2117 20.7897Z" fill="white"/>
<path d="M0 50.9326C0.3475 63.4764 9.362 63.6634 13.202 63.7733L4.332 42.9771L0 50.9326Z" fill="white"/>
<path d="M38.8081 22.2813C44.4749 25.7779 55.8956 32.8004 56.1271 32.9294C56.4871 33.1327 61.0509 25.2032 62.0866 20.7217L38.8081 22.2813Z" fill="white"/>
<path d="M20.5283 39.2803L30.3566 58.3166C36.1681 55.1525 40.7191 51.2975 44.8868 47.1681L20.5283 39.2803Z" fill="white"/>
<path d="M4.29338 43.0032L2.90088 59.6502C5.52838 63.2535 9.14338 63.5668 12.9349 63.2859C10.1916 56.4314 4.71138 42.7256 4.29338 43.0032Z" fill="white"/>
<path d="M43.7065 5.68552L63.2315 8.43627C62.1893 4.00345 58.9893 1.14278 53.5348 0.248535L43.7065 5.68552Z" fill="white"/>
</svg>
