<svg width="64" height="64" viewBox="0 0 64 64" fill="none" xmlns="http://www.w3.org/2000/svg">
<path d="M32.2773 4.79218e-05C19.6819 -0.021776 7.8269 7.41198 2.38622 19.1788L17.6844 19.215V20.8803C12.9737 20.316 13.3885 22.7508 14.0554 25.3351L24.0979 50.3864L31.4793 33.1646L28.0907 25.0937C26.8599 22.932 26.8339 20.5338 21.7984 20.7596L21.8692 19.225L44.3062 19.2794V20.999C41.6786 21.1524 38.5155 20.3414 40.1922 25.6971L49.2669 49.4231L54.2276 35.572C55.852 29.7657 54.3232 24.1858 52.3928 18.7142C51.3192 15.0435 51.8199 11.978 56.6321 10.7619C49.2868 3.29923 40.6198 0.0145118 32.2775 4.79218e-05H32.2773ZM62.7928 21.9039L48.2462 59.6438C52.2635 56.1808 56.3824 54.9203 61.4227 45.3382C64.7763 37.3682 64.4311 29.9849 62.7928 21.9039V21.9039ZM0.846492 22.5153C-0.573316 33.6567 -0.44343 36.9199 3.07121 46.0181C7.65258 54.7319 11.2053 56.5678 16.2477 59.9858L0.846428 22.5153H0.846492ZM32.8451 36.652L22.0651 62.54C29.632 64.6896 36.4026 64.4206 42.6007 62.0291L32.8451 36.6519V36.652Z" fill="white"/>
</svg>
