<svg width="64" height="64" viewBox="0 0 64 64" fill="none" xmlns="http://www.w3.org/2000/svg">
<path d="M34.6667 23.9998C34.6667 23.9998 37.3333 18.6665 37.3333 13.3332C37.3333 7.99984 32 2.6665 32 2.6665C32 2.6665 26.6667 7.99984 26.6667 13.3332C26.6667 18.6665 29.3333 23.9998 29.3333 23.9998M32 39.9998C34.1217 39.9998 36.1566 39.157 37.6569 37.6567C39.1571 36.1564 40 34.1216 40 31.9998C40 29.8781 39.1571 27.8433 37.6569 26.343C36.1566 24.8427 34.1217 23.9998 32 23.9998C29.8783 23.9998 27.8434 24.8427 26.3431 26.343C24.8429 27.8433 24 29.8781 24 31.9998C24 34.1216 24.8429 36.1564 26.3431 37.6567C27.8434 39.157 29.8783 39.9998 32 39.9998V39.9998Z" stroke="white" stroke-width="3.6" stroke-miterlimit="1.5" stroke-linecap="round" stroke-linejoin="round"/>
<path d="M35.7707 24.4583C35.7707 24.4583 37.6561 18.7996 41.4294 15.029C45.2001 11.2583 52.7414 11.2583 52.7414 11.2583C52.7414 11.2583 52.7414 18.7996 48.9708 22.573C45.2001 26.3436 39.5414 28.229 39.5414 28.229M24.0001 29.333C24.0001 29.333 18.6667 26.6663 13.3334 26.6663C8.00008 26.6663 2.66675 31.9996 2.66675 31.9996C2.66675 31.9996 8.00008 37.333 13.3334 37.333C18.6667 37.333 24.0001 34.6663 24.0001 34.6663V29.333ZM34.6667 39.9996C34.6667 39.9996 37.3334 45.333 37.3334 50.6663C37.3334 55.9996 32.0001 61.333 32.0001 61.333C32.0001 61.333 26.6667 55.9996 26.6667 50.6663C26.6667 45.333 29.3334 39.9996 29.3334 39.9996H34.6667ZM40.0001 29.333C40.0001 29.333 45.3334 26.6663 50.6667 26.6663C56.0001 26.6663 61.3334 31.9996 61.3334 31.9996C61.3334 31.9996 56.0001 37.333 50.6667 37.333C45.3334 37.333 40.0001 34.6663 40.0001 34.6663V29.333ZM28.2294 24.4583C28.2294 24.4583 26.3441 18.7996 22.5707 15.029C18.8001 11.2583 11.2587 11.2583 11.2587 11.2583C11.2587 11.2583 11.2587 18.7996 15.0294 22.573C18.8001 26.3436 24.4587 28.229 24.4587 28.229L28.2294 24.4583ZM24.4587 35.7703C24.4587 35.7703 18.8001 37.6556 15.0294 41.429C11.2587 45.1996 11.2587 52.741 11.2587 52.741C11.2587 52.741 18.8001 52.741 22.5707 48.9703C26.3441 45.1996 28.2294 39.541 28.2294 39.541L24.4587 35.7703ZM39.5441 35.7703C39.5441 35.7703 45.1974 37.6556 48.9708 41.429C52.7414 45.1996 52.7414 52.741 52.7414 52.741C52.7414 52.741 45.2001 52.741 41.4294 48.9703C37.6561 45.1996 35.7707 39.541 35.7707 39.541L39.5441 35.7703Z" stroke="white" stroke-width="3.6" stroke-miterlimit="1.5" stroke-linecap="round" stroke-linejoin="round"/>
</svg>
