<svg width="64" height="64" viewBox="0 0 64 64" fill="none" xmlns="http://www.w3.org/2000/svg">
<path d="M2.66663 26.6665C2.66663 42.8665 10.6666 55.9998 26.6666 55.9998C42.6666 55.9998 50.6666 42.8665 50.6666 26.6665H2.66663Z" stroke="white" stroke-width="5" stroke-linecap="round" stroke-linejoin="round"/>
<path d="M26.6666 18.6667V8V18.6667ZM39.9999 18.6667V13.3333V18.6667ZM13.3333 18.6667V13.3333V18.6667ZM48.2533 40.8307C49.5733 37.3853 50.3519 33.516 50.5893 29.4013C51.0493 29.356 51.5199 29.3333 51.9999 29.3333C57.1546 29.3333 61.3333 32.02 61.3333 35.3333C61.3333 38.6467 57.1546 41.3333 51.9999 41.3333C50.6666 41.3333 49.3999 41.1533 48.2533 40.8307Z" stroke="white" stroke-width="5" stroke-linecap="round" stroke-linejoin="round"/>
</svg>
