<svg width="64" height="64" viewBox="0 0 64 64" fill="none" xmlns="http://www.w3.org/2000/svg">
<path d="M51.0613 7.92283C50.5861 7.13489 49.9159 6.4827 49.1153 6.02915C48.3147 5.57561 47.4107 5.33602 46.4906 5.3335H17.5093C15.6479 5.3335 13.8959 6.3255 12.9386 7.92283L5.71459 19.9602C5.4646 20.3746 5.33273 20.8495 5.33325 21.3335C5.3439 23.9074 6.2919 26.3893 7.99992 28.3148V50.6668C7.99992 53.6082 10.3919 56.0002 13.3333 56.0002H50.6666C53.6079 56.0002 55.9999 53.6082 55.9999 50.6668V28.3148C57.7079 26.3893 58.6559 23.9074 58.6666 21.3335C58.6671 20.8495 58.5352 20.3746 58.2853 19.9602L51.0613 7.92283ZM53.2906 22.0028C53.126 23.2904 52.4982 24.4739 51.5245 25.3322C50.5508 26.1906 49.2979 26.665 47.9999 26.6668C45.0586 26.6668 42.6666 24.2748 42.6666 21.3335C42.6666 21.1522 42.5999 20.9922 42.5626 20.8215L42.6159 20.8108L40.5866 10.6668H46.4906L53.2906 22.0028ZM28.8506 10.6668H35.1466L37.3146 21.5068C37.2213 24.3655 34.8799 26.6668 31.9999 26.6668C29.1199 26.6668 26.7786 24.3655 26.6853 21.5068L28.8506 10.6668ZM17.5093 10.6668H23.4133L21.3866 20.8108L21.4399 20.8215C21.3999 20.9922 21.3333 21.1522 21.3333 21.3335C21.3333 24.2748 18.9413 26.6668 15.9999 26.6668C14.7019 26.665 13.449 26.1906 12.4753 25.3322C11.5017 24.4739 10.8738 23.2904 10.7093 22.0028L17.5093 10.6668ZM26.6666 50.6668V42.6668H37.3333V50.6668H26.6666ZM42.6666 50.6668V42.6668C42.6666 39.7255 40.2746 37.3335 37.3333 37.3335H26.6666C23.7253 37.3335 21.3333 39.7255 21.3333 42.6668V50.6668H13.3333V31.6215C14.1893 31.8428 15.0719 32.0002 15.9999 32.0002C17.5141 32.001 19.011 31.6786 20.3906 31.0545C21.7702 30.4305 23.0007 29.5192 23.9999 28.3815C25.9546 30.6002 28.8186 32.0002 31.9999 32.0002C35.1813 32.0002 38.0453 30.6002 39.9999 28.3815C40.9991 29.5192 42.2296 30.4305 43.6092 31.0545C44.9888 31.6786 46.4857 32.001 47.9999 32.0002C48.9279 32.0002 49.8106 31.8428 50.6666 31.6215V50.6668H42.6666Z" fill="white"/>
</svg>
