<svg width="64" height="64" viewBox="0 0 64 64" fill="none" xmlns="http://www.w3.org/2000/svg">
<path d="M31.9999 58.6668C17.2719 58.6668 5.33325 46.7282 5.33325 32.0002C5.33325 17.2722 17.2719 5.3335 31.9999 5.3335C46.7279 5.3335 58.6666 17.2722 58.6666 32.0002C58.6666 46.7282 46.7279 58.6668 31.9999 58.6668ZM31.9999 53.3335C37.6579 53.3335 43.0841 51.0859 47.0849 47.0851C51.0856 43.0843 53.3332 37.6581 53.3332 32.0002C53.3332 26.3422 51.0856 20.916 47.0849 16.9152C43.0841 12.9144 37.6579 10.6668 31.9999 10.6668C26.342 10.6668 20.9157 12.9144 16.915 16.9152C12.9142 20.916 10.6666 26.3422 10.6666 32.0002C10.6666 37.6581 12.9142 43.0843 16.915 47.0851C20.9157 51.0859 26.342 53.3335 31.9999 53.3335ZM22.6666 37.3335H37.3333C37.6869 37.3335 38.026 37.193 38.2761 36.943C38.5261 36.6929 38.6666 36.3538 38.6666 36.0002C38.6666 35.6465 38.5261 35.3074 38.2761 35.0574C38.026 34.8073 37.6869 34.6668 37.3333 34.6668H26.6666C24.8985 34.6668 23.2028 33.9644 21.9525 32.7142C20.7023 31.464 19.9999 29.7683 19.9999 28.0002C19.9999 26.2321 20.7023 24.5364 21.9525 23.2861C23.2028 22.0359 24.8985 21.3335 26.6666 21.3335H29.3333V16.0002H34.6666V21.3335H41.3332V26.6668H26.6666C26.313 26.6668 25.9738 26.8073 25.7238 27.0574C25.4737 27.3074 25.3333 27.6465 25.3333 28.0002C25.3333 28.3538 25.4737 28.6929 25.7238 28.943C25.9738 29.193 26.313 29.3335 26.6666 29.3335H37.3333C39.1014 29.3335 40.7971 30.0359 42.0473 31.2861C43.2975 32.5364 43.9999 34.2321 43.9999 36.0002C43.9999 37.7683 43.2975 39.464 42.0473 40.7142C40.7971 41.9644 39.1014 42.6668 37.3333 42.6668H34.6666V48.0002H29.3333V42.6668H22.6666V37.3335Z" fill="white"/>
</svg>
