<svg width="64" height="64" viewBox="0 0 64 64" fill="none" xmlns="http://www.w3.org/2000/svg">
<path d="M15.3333 5.3335C14.8028 5.3335 14.2941 5.54421 13.919 5.91928C13.544 6.29435 13.3333 6.80306 13.3333 7.3335V38.0002C13.3333 39.5915 13.9654 41.1176 15.0906 42.2428C16.2158 43.368 17.742 44.0002 19.3333 44.0002H25.3333V52.0002C25.3333 53.7683 26.0356 55.464 27.2859 56.7142C28.5361 57.9644 30.2318 58.6668 31.9999 58.6668C33.768 58.6668 35.4637 57.9644 36.714 56.7142C37.9642 55.464 38.6666 53.7683 38.6666 52.0002V44.0002H44.6666C45.4545 44.0002 46.2347 43.845 46.9627 43.5434C47.6906 43.2419 48.3521 42.8 48.9092 42.2428C49.4664 41.6856 49.9083 41.0242 50.2099 40.2963C50.5114 39.5683 50.6666 38.7881 50.6666 38.0002V7.3335C50.6666 6.80306 50.4559 6.29435 50.0808 5.91928C49.7057 5.54421 49.197 5.3335 48.6666 5.3335H15.3333ZM17.3333 29.3335V9.3335H33.3333V14.0055C33.3333 14.5359 33.544 15.0446 33.919 15.4197C34.2941 15.7948 34.8028 16.0055 35.3333 16.0055C35.8637 16.0055 36.3724 15.7948 36.7475 15.4197C37.1225 15.0446 37.3333 14.5359 37.3333 14.0055V9.3335H39.9999V16.6695C39.9999 17.1999 40.2106 17.7086 40.5857 18.0837C40.9608 18.4588 41.4695 18.6695 41.9999 18.6695C42.5303 18.6695 43.0391 18.4588 43.4141 18.0837C43.7892 17.7086 43.9999 17.1999 43.9999 16.6695V9.3335H46.6666V29.3335H17.3333ZM17.3333 38.0002V33.3335H46.6666V38.0002C46.6666 38.5306 46.4559 39.0393 46.0808 39.4144C45.7057 39.7894 45.197 40.0002 44.6666 40.0002H36.6666C36.1362 40.0002 35.6274 40.2109 35.2524 40.5859C34.8773 40.961 34.6666 41.4697 34.6666 42.0002V52.0002C34.6666 52.7074 34.3856 53.3857 33.8855 53.8858C33.3854 54.3859 32.7072 54.6668 31.9999 54.6668C31.2927 54.6668 30.6144 54.3859 30.1143 53.8858C29.6142 53.3857 29.3333 52.7074 29.3333 52.0002V42.0002C29.3333 41.4697 29.1225 40.961 28.7475 40.5859C28.3724 40.2109 27.8637 40.0002 27.3333 40.0002H19.3333C18.8028 40.0002 18.2941 39.7894 17.919 39.4144C17.544 39.0393 17.3333 38.5306 17.3333 38.0002Z" fill="white"/>
</svg>
