<svg width="64" height="64" viewBox="0 0 64 64" fill="none" xmlns="http://www.w3.org/2000/svg">
<path fill-rule="evenodd" clip-rule="evenodd" d="M18.4306 49.3213C21.6946 52.2693 25.2706 54.7039 29.308 56.6239C31.4706 57.6506 34.036 57.5573 36.1093 56.3746C39.6066 54.3799 42.6506 51.9786 45.5933 49.3213C51.8306 43.6866 55.468 35.9333 55.7066 27.7559L55.9853 18.2213C56.0173 17.1119 55.9866 14.6666 55.9866 14.6666C54.5858 14.4456 53.1801 14.2563 51.7706 14.0986C47.4106 13.5759 43.0693 13.0573 39.26 10.7279L36.544 9.06795C35.3905 8.36934 34.0678 8 32.7193 8C31.3708 8 30.0481 8.36934 28.8946 9.06795L26.2933 10.6586C21.9373 13.3199 16.6293 13.8239 11.492 14.3119C10.328 14.4226 9.17197 14.5333 8.03864 14.6666C8.03864 14.6666 8.00664 17.1266 8.03864 18.2519L8.3173 27.7559C8.55597 35.9333 12.192 43.6866 18.4306 49.3213ZM10.692 17.0679C10.692 17.4946 10.696 17.8879 10.7053 18.1746L10.9826 27.6786C11.2 35.1053 14.5026 42.1799 20.2173 47.3426C23.3 50.1253 26.6613 52.4119 30.4533 54.2146C31.136 54.5367 31.8859 54.6907 32.6403 54.6635C33.3946 54.6364 34.1315 54.429 34.7893 54.0586C38.0626 52.1919 40.948 49.9239 43.8066 47.3426C49.5213 42.1799 52.824 35.1066 53.0413 27.6786L53.32 18.1426C53.328 17.8453 53.3333 17.4253 53.3333 16.9773C52.7093 16.8973 52.0746 16.8213 51.4266 16.7426L51.3546 16.7346C49.8735 16.5685 48.3966 16.3662 46.9253 16.1279C43.9333 15.6213 40.8026 14.7959 37.8693 13.0039L35.1533 11.3426C34.4186 10.8999 33.5771 10.666 32.7193 10.666C31.8615 10.666 31.02 10.8999 30.2853 11.3426L27.684 12.9333C24.5906 14.8226 21.1773 15.7186 17.888 16.2479C15.848 16.5759 13.6506 16.7853 11.5933 16.9826L10.692 17.0693V17.0679Z" fill="white"/>
<path fill-rule="evenodd" clip-rule="evenodd" d="M29.332 44V20H34.6654V44H29.332Z" fill="white"/>
<path fill-rule="evenodd" clip-rule="evenodd" d="M44 34.6668H20V29.3335H44V34.6668Z" fill="white"/>
</svg>
