<svg width="64" height="64" viewBox="0 0 64 64" fill="none" xmlns="http://www.w3.org/2000/svg">
<path d="M59.06 12.3C58.756 12.1245 58.4111 12.0321 58.06 12.0321C57.7089 12.0321 57.364 12.1245 57.06 12.3L40 20.76V14C39.999 13.6591 39.9108 13.3241 39.7439 13.0268C39.5769 12.7295 39.3368 12.4799 39.0462 12.3015C38.7557 12.1232 38.4243 12.0221 38.0837 12.0078C37.7431 11.9935 37.4045 12.0666 37.1 12.22L20 20.76V6C20 5.46957 19.7893 4.96086 19.4142 4.58579C19.0391 4.21071 18.5304 4 18 4H6C5.46957 4 4.96086 4.21071 4.58579 4.58579C4.21071 4.96086 4 5.46957 4 6V56H60V14C60.0007 13.6601 59.9147 13.3257 59.7503 13.0282C59.5858 12.7308 59.3482 12.4801 59.06 12.3ZM44 52H36V38H44V52ZM56 52H48V36C48 35.4696 47.7893 34.9609 47.4142 34.5858C47.0391 34.2107 46.5304 34 46 34H34C33.4696 34 32.9609 34.2107 32.5858 34.5858C32.2107 34.9609 32 35.4696 32 36V52H8V8H16V27.24L36 17.24V27.24L56 17.24V52Z" fill="white"/>
</svg>
