<svg width="64" height="64" viewBox="0 0 64 64" fill="none" xmlns="http://www.w3.org/2000/svg">
<g clip-path="url(#clip0_1273_113)">
<path d="M16.2026 4.36527C16.1544 4.36449 16.1069 4.3764 16.0647 4.3998C16.0226 4.4232 15.9874 4.45728 15.9626 4.4986L0.0372685 31.8666C0.0123931 31.9086 -0.000732422 31.9565 -0.000732422 32.0053C-0.000732422 32.0541 0.0123931 32.102 0.0372685 32.1439L16.1413 59.5039C16.2479 59.6853 16.5146 59.6853 16.6213 59.5039L32.5466 32.1386C32.5707 32.0961 32.5829 32.048 32.5819 31.9992C32.581 31.9504 32.567 31.9028 32.5413 31.8613L16.4426 4.4986C16.4178 4.45728 16.3826 4.4232 16.3405 4.3998C16.2983 4.3764 16.2508 4.36449 16.2026 4.36527ZM23.8373 4.36527C23.7891 4.36503 23.7417 4.37748 23.6998 4.40136C23.6579 4.42525 23.6231 4.45973 23.5988 4.50135C23.5744 4.54296 23.5615 4.59024 23.5612 4.63844C23.561 4.68664 23.5734 4.73406 23.5973 4.77594L37.4266 28.6879C37.4508 28.7304 37.4857 28.7658 37.5278 28.7906C37.5699 28.8154 37.6177 28.8287 37.6666 28.8293H45.9786C46.1919 28.8293 46.3253 28.5946 46.2186 28.4106L32.3893 4.50127C32.3646 4.45963 32.3295 4.42517 32.2874 4.40131C32.2453 4.37746 32.1977 4.36503 32.1493 4.36527H23.8399H23.8373ZM39.5466 4.36527C39.4985 4.36515 39.4513 4.37777 39.4097 4.40185C39.3681 4.42592 39.3336 4.46059 39.3098 4.50232C39.2859 4.54405 39.2736 4.59136 39.2739 4.63942C39.2743 4.68748 39.2874 4.73459 39.3119 4.77594L55.0826 31.9999L39.3119 59.2239C39.2874 59.2653 39.2743 59.3124 39.2739 59.3605C39.2736 59.4085 39.2859 59.4558 39.3098 59.4976C39.3336 59.5393 39.3681 59.574 39.4097 59.598C39.4513 59.6221 39.4985 59.6347 39.5466 59.6346H47.8746C47.922 59.6353 47.9688 59.6233 48.01 59.5998C48.0513 59.5764 48.0855 59.5424 48.1093 59.5013L63.9626 32.1359C63.987 32.0948 63.9999 32.0478 63.9999 31.9999C63.9999 31.9521 63.987 31.9051 63.9626 31.8639L48.1093 4.50127C48.0859 4.45968 48.0518 4.42513 48.0105 4.40121C47.9692 4.37729 47.9223 4.36488 47.8746 4.36527H39.5466ZM37.4399 35.5653C37.3915 35.5647 37.3438 35.5772 37.302 35.6017C37.2602 35.6261 37.2258 35.6615 37.2026 35.7039L23.5999 59.2239C23.4933 59.4079 23.6266 59.6346 23.8399 59.6346H32.1519C32.2001 59.6351 32.2475 59.6231 32.2896 59.5997C32.3317 59.5763 32.3669 59.5424 32.3919 59.5013L45.9919 35.9813C46.0165 35.9393 46.0294 35.8916 46.0295 35.843C46.0296 35.7944 46.0168 35.7467 45.9924 35.7047C45.968 35.6626 45.9329 35.6278 45.8906 35.6038C45.8484 35.5798 45.8005 35.5674 45.7519 35.5679H37.4373L37.4399 35.5653Z" fill="white"/>
</g>
<defs>
<clipPath id="clip0_1273_113">
<rect width="64" height="64" fill="white"/>
</clipPath>
</defs>
</svg>
