<svg width="64" height="64" viewBox="0 0 64 64" fill="none" xmlns="http://www.w3.org/2000/svg">
<path d="M49.3333 24H14.6667C13.1939 24 12 25.1939 12 26.6667V53.3333C12 54.8061 13.1939 56 14.6667 56H49.3333C50.8061 56 52 54.8061 52 53.3333V26.6667C52 25.1939 50.8061 24 49.3333 24Z" stroke="white" stroke-width="5"/>
<path d="M22.6667 37.3333C24.1394 37.3333 25.3333 36.1394 25.3333 34.6667C25.3333 33.1939 24.1394 32 22.6667 32C21.1939 32 20 33.1939 20 34.6667C20 36.1394 21.1939 37.3333 22.6667 37.3333Z" fill="white"/>
<path d="M41.3334 37.3333C42.8062 37.3333 44.0001 36.1394 44.0001 34.6667C44.0001 33.1939 42.8062 32 41.3334 32C39.8607 32 38.6667 33.1939 38.6667 34.6667C38.6667 36.1394 39.8607 37.3333 41.3334 37.3333Z" fill="white"/>
<path d="M26.6667 42.6665C25.9594 42.6665 25.2811 42.9475 24.781 43.4476C24.281 43.9476 24 44.6259 24 45.3332C24 46.0404 24.281 46.7187 24.781 47.2188C25.2811 47.7189 25.9594 47.9998 26.6667 47.9998V42.6665ZM37.3333 47.9998C38.0406 47.9998 38.7189 47.7189 39.219 47.2188C39.719 46.7187 40 46.0404 40 45.3332C40 44.6259 39.719 43.9476 39.219 43.4476C38.7189 42.9475 38.0406 42.6665 37.3333 42.6665V47.9998ZM26.6667 47.9998H37.3333V42.6665H26.6667V47.9998Z" fill="white"/>
<path d="M58.6667 34.6668V45.3335M32 13.3335V24.0002V13.3335ZM5.33337 34.6668V45.3335V34.6668Z" stroke="white" stroke-width="5" stroke-linecap="round" stroke-linejoin="round"/>
<path d="M32 13.3333C33.4728 13.3333 34.6667 12.1394 34.6667 10.6667C34.6667 9.19391 33.4728 8 32 8C30.5273 8 29.3334 9.19391 29.3334 10.6667C29.3334 12.1394 30.5273 13.3333 32 13.3333Z" stroke="white" stroke-width="5"/>
</svg>
