<svg width="64" height="64" viewBox="0 0 64 64" fill="none" xmlns="http://www.w3.org/2000/svg">
<path d="M8 32H32V36H8V32ZM4 22H24V26H4V22Z" fill="white"/>
<path d="M59.8381 33.212L53.8381 19.212C53.6841 18.8522 53.4278 18.5455 53.1011 18.33C52.7743 18.1145 52.3915 17.9998 52.0001 18H46.0001V14C46.0001 13.4696 45.7893 12.9609 45.4143 12.5858C45.0392 12.2107 44.5305 12 44.0001 12H12.0001V16H42.0001V41.112C41.0887 41.6412 40.2912 42.3456 39.6534 43.1845C39.0156 44.0234 38.5502 44.9803 38.2841 46H25.7161C25.2293 44.1147 24.0716 42.4716 22.46 41.3788C20.8485 40.286 18.8937 39.8184 16.9621 40.0638C15.0304 40.3091 13.2546 41.2505 11.9674 42.7115C10.6802 44.1726 9.97009 46.0529 9.97009 48C9.97009 49.9471 10.6802 51.8274 11.9674 53.2885C13.2546 54.7495 15.0304 55.6909 16.9621 55.9362C18.8937 56.1816 20.8485 55.714 22.46 54.6212C24.0716 53.5284 25.2293 51.8853 25.7161 50H38.2841C38.7191 51.7165 39.7141 53.2389 41.1116 54.3263C42.5091 55.4138 44.2293 56.0043 46.0001 56.0043C47.7708 56.0043 49.491 55.4138 50.8885 54.3263C52.286 53.2389 53.281 51.7165 53.7161 50H58.0001C58.5305 50 59.0392 49.7893 59.4143 49.4142C59.7893 49.0391 60.0001 48.5304 60.0001 48V34C60.0002 33.7291 59.945 33.4609 59.8381 33.212ZM18.0001 52C17.2089 52 16.4356 51.7654 15.7778 51.3259C15.12 50.8864 14.6073 50.2616 14.3045 49.5307C14.0018 48.7998 13.9226 47.9956 14.0769 47.2196C14.2313 46.4437 14.6122 45.731 15.1716 45.1716C15.731 44.6122 16.4438 44.2312 17.2197 44.0769C17.9956 43.9225 18.7999 44.0017 19.5308 44.3045C20.2617 44.6072 20.8864 45.1199 21.3259 45.7777C21.7655 46.4355 22.0001 47.2089 22.0001 48C21.999 49.0605 21.5772 50.0773 20.8273 50.8273C20.0774 51.5772 19.0606 51.9989 18.0001 52ZM46.0001 22H50.6801L54.9681 32H46.0001V22ZM46.0001 52C45.2089 52 44.4356 51.7654 43.7778 51.3259C43.12 50.8864 42.6073 50.2616 42.3045 49.5307C42.0018 48.7998 41.9226 47.9956 42.0769 47.2196C42.2313 46.4437 42.6122 45.731 43.1716 45.1716C43.731 44.6122 44.4438 44.2312 45.2197 44.0769C45.9956 43.9225 46.7999 44.0017 47.5308 44.3045C48.2617 44.6072 48.8864 45.1199 49.3259 45.7777C49.7655 46.4355 50.0001 47.2089 50.0001 48C49.999 49.0605 49.5772 50.0773 48.8273 50.8273C48.0774 51.5772 47.0606 51.9989 46.0001 52ZM56.0001 46H53.7161C53.2755 44.2869 52.2789 42.7684 50.8825 41.6825C49.4862 40.5967 47.7689 40.0049 46.0001 40V36H56.0001V46Z" fill="white"/>
</svg>
