<svg width="64" height="64" viewBox="0 0 64 64" fill="none" xmlns="http://www.w3.org/2000/svg">
<path d="M25.3334 48.0002V24.0002H21.3334V48.0002H25.3334ZM34 48.0002V24.0002H30V48.0002H34ZM42.6667 48.0002V24.0002H38.6667V48.0002H42.6667ZM45.4134 16.0002C48.2934 16.0002 50.6667 18.3468 50.6667 21.3335V50.6668C50.6667 53.6802 48.2934 56.0002 45.4134 56.0002C45.4134 57.5468 44.16 58.6668 42.6667 58.6668C41.3334 58.6668 40 57.5468 40 56.0002H24C24 57.5468 22.6667 58.6668 21.3334 58.6668C19.84 58.6668 18.5867 57.5468 18.5867 56.0002C15.7067 56.0002 13.3334 53.6802 13.3334 50.6668V21.3335C13.3334 18.3468 15.7067 16.0002 18.5867 16.0002H24V8.00016C24 6.4535 25.2267 5.3335 26.6667 5.3335H37.3334C38.7734 5.3335 40 6.4535 40 8.00016V16.0002H45.4134ZM28 9.3335V16.0002H36V9.3335H28ZM45.4134 50.6668V21.3335H18.5867V50.6668" fill="white"/>
</svg>
