<svg width="64" height="64" viewBox="0 0 64 64" fill="none" xmlns="http://www.w3.org/2000/svg">
<path d="M51.2 35.1999C48.32 32.6399 44.16 32.3199 40.32 31.9999L43.52 38.7199L32 50.5599L20.48 39.0399L23.68 31.9999C19.84 31.9999 15.68 32.6399 12.8 35.1999C10.24 37.4399 9.60001 41.2799 9.60001 45.1199V54.0799C9.60001 54.0799 20.48 57.9199 32 57.5999C43.52 57.9199 54.4 54.0799 54.4 54.0799V45.1199C54.4 41.5999 53.76 37.7599 51.2 35.1999ZM21.12 29.7599C23.68 29.7599 27.52 28.4799 28.16 27.5199C25.6 24.3199 23.36 21.1199 25.6 15.0399C25.6 15.0399 29.12 18.8799 39.36 19.8399C39.36 23.0399 37.76 25.2799 35.84 27.5199C36.48 28.4799 40.32 29.7599 42.88 29.7599C45.44 29.7599 47.36 29.1199 47.36 28.1599C47.36 27.1999 43.2 23.9999 42.24 21.1199C41.28 18.2399 41.92 15.0399 40.64 11.1999C38.72 6.7199 34.24 6.3999 32 6.3999C29.76 6.3999 25.28 6.7199 23.36 11.1999C22.08 15.0399 22.72 18.2399 21.76 21.1199C20.8 23.9999 16.64 27.1999 16.64 28.1599C16.64 29.1199 18.56 29.7599 21.12 29.7599Z" fill="white"/>
<path d="M32 35.2L24.64 32L32 50.56L39.36 32L32 35.2Z" fill="white"/>
</svg>
