<svg width="64" height="64" viewBox="0 0 64 64" fill="none" xmlns="http://www.w3.org/2000/svg">
<path d="M18.9333 21.3331H45.0667C45.3333 21.3331 45.3333 21.3331 45.3333 21.0665C45.0667 19.7331 44.8 18.6665 44.2667 17.5998C43.2 15.1998 41.3333 13.5998 39.2 12.2665L38.1333 11.7331C38.1333 11.7331 38.1333 11.4665 38.4 11.4665C39.2 10.3998 40 9.33315 40.8 7.99981C41.0667 7.73315 41.0667 7.46648 40.8 7.19981C40.5333 6.93315 40.2667 7.19981 40 7.46648L37.6 10.9331C37.6 10.9331 37.3333 11.1998 37.3333 10.9331C35.2 10.1331 33.0667 9.86648 30.9333 9.86648C29.3333 9.86648 28 10.3998 26.6667 10.9331H26.4L24 7.73315C24 7.73315 24 7.46648 23.7333 7.46648C23.4667 7.19981 23.2 7.19981 23.2 7.46648C22.9333 7.46648 22.9333 7.73315 23.2 7.99981C23.2 7.99981 23.2 8.26648 23.4667 8.26648C24 9.33315 24.8 10.3998 25.6 11.4665L25.8667 11.7331H25.6C24 12.5331 22.6667 13.5998 21.6 14.9331C20 16.5331 18.9333 18.6665 18.6667 21.0665C18.6667 21.3331 18.6667 21.3331 18.9333 21.3331ZM37.8667 13.8665C38.9333 13.8665 40 14.6665 40 15.9998C40 17.0665 39.2 18.1331 38.1333 18.1331C37.0667 18.1331 36 17.3331 36 15.9998C35.7333 14.9331 36.8 13.8665 37.8667 13.8665ZM26.4 13.8665C27.4667 13.8665 28.5333 14.6665 28.5333 15.9998C28.5333 17.0665 27.7333 18.1331 26.6667 18.1331C25.3333 18.1331 24.2667 17.0665 24.2667 15.9998C24.2667 14.9331 25.3333 13.8665 26.4 13.8665ZM13.3333 23.9998C12 23.9998 10.6667 25.3331 10.6667 26.6665V39.9998C10.6667 41.3331 12 42.6665 13.3333 42.6665C14.6667 42.6665 16 41.3331 16 39.9998V26.6665C16 25.3331 14.6667 23.9998 13.3333 23.9998ZM50.6667 23.9998C49.3333 23.9998 48 25.3331 48 26.6665V39.9998C48 41.3331 49.3333 42.6665 50.6667 42.6665C52 42.6665 53.3333 41.3331 53.3333 39.9998V26.6665C53.3333 25.3331 52 23.9998 50.6667 23.9998ZM18.6667 45.3331C18.6667 46.6665 20 47.9998 21.3333 47.9998H24V55.9998C24 57.3331 25.3333 58.6665 26.6667 58.6665C28 58.6665 29.3333 57.3331 29.3333 55.9998V47.9998H34.6667V55.9998C34.6667 57.3331 36 58.6665 37.3333 58.6665C38.6667 58.6665 40 57.3331 40 55.9998V47.9998H42.6667C44 47.9998 45.3333 46.6665 45.3333 45.3331V23.9998H18.6667V45.3331Z" fill="white"/>
</svg>
