<svg width="64" height="64" viewBox="0 0 64 64" fill="none" xmlns="http://www.w3.org/2000/svg">
<path d="M13.3333 33.3333C13.3333 34.168 14.5627 35.6213 17.4133 37.048C21.104 38.8933 26.3387 40 32 40C37.6613 40 42.896 38.8933 46.5867 37.048C49.4373 35.6213 50.6667 34.168 50.6667 33.3333V27.544C46.2667 30.264 39.5387 32 32 32C24.4613 32 17.7333 30.2613 13.3333 27.544V33.3333ZM50.6667 40.8773C46.2667 43.5973 39.5387 45.3333 32 45.3333C24.4613 45.3333 17.7333 43.5947 13.3333 40.8773V46.6667C13.3333 47.5013 14.5627 48.9547 17.4133 50.3813C21.104 52.2267 26.3387 53.3333 32 53.3333C37.6613 53.3333 42.896 52.2267 46.5867 50.3813C49.4373 48.9547 50.6667 47.5013 50.6667 46.6667V40.8773ZM8 46.6667V20C8 13.3733 18.7467 8 32 8C45.2533 8 56 13.3733 56 20V46.6667C56 53.2933 45.2533 58.6667 32 58.6667C18.7467 58.6667 8 53.2933 8 46.6667ZM32 26.6667C37.6613 26.6667 42.896 25.56 46.5867 23.7147C49.4373 22.288 50.6667 20.8347 50.6667 20C50.6667 19.1653 49.4373 17.712 46.5867 16.2853C42.896 14.44 37.6613 13.3333 32 13.3333C26.3387 13.3333 21.104 14.44 17.4133 16.2853C14.5627 17.712 13.3333 19.1653 13.3333 20C13.3333 20.8347 14.5627 22.288 17.4133 23.7147C21.104 25.56 26.3387 26.6667 32 26.6667Z" fill="white"/>
</svg>
