<svg width="64" height="64" viewBox="0 0 64 64" fill="none" xmlns="http://www.w3.org/2000/svg">
<path d="M42.24 32.0002L35.2 41.6002L32 37.1202L28.8 41.6002L21.76 32.0002C9.60001 35.2002 9.60001 41.6002 9.60001 54.0802C9.60001 54.0802 19.2 57.6002 30.08 57.6002H33.92C44.8 57.2802 54.4 54.0802 54.4 54.0802C54.4 41.6002 54.4 35.2002 42.24 32.0002ZM32 34.2402L26.88 32.0002L32 37.1202L37.12 32.0002L32 34.2402ZM32 6.72021C25.92 6.72021 22.4 12.4802 23.36 18.8802C24.32 25.2802 27.52 29.7602 32 29.7602C36.48 29.7602 39.68 25.2802 40.64 18.8802C41.6 12.1602 38.08 6.72021 32 6.72021Z" fill="white"/>
</svg>
