<svg width="64" height="64" viewBox="0 0 64 64" fill="none" xmlns="http://www.w3.org/2000/svg">
<path d="M29.2 41.4668L44.2667 26.4002L40.4667 22.6002L29.2 33.8668L23.6 28.2668L19.8 32.0668L29.2 41.4668ZM32 58.6668C25.8222 57.1113 20.7227 53.5664 16.7013 48.0322C12.6782 42.4997 10.6667 36.3557 10.6667 29.6002V13.3335L32 5.3335L53.3333 13.3335V29.6002C53.3333 36.3557 51.3227 42.4997 47.3013 48.0322C43.2782 53.5664 38.1778 57.1113 32 58.6668ZM32 53.0668C36.6222 51.6002 40.4444 48.6668 43.4667 44.2668C46.4889 39.8668 48 34.9779 48 29.6002V17.0002L32 11.0002L16 17.0002V29.6002C16 34.9779 17.5111 39.8668 20.5333 44.2668C23.5556 48.6668 27.3778 51.6002 32 53.0668Z" fill="white"/>
</svg>
